<svg width="540" height="363" viewBox="0 0 540 363" fill="none" xmlns="http://www.w3.org/2000/svg">
<rect width="540" height="363" fill="white"/>
<path d="M161.654 214.688C161.326 213.868 161.49 212.884 162.064 212.064L195.274 161.716C196.996 159.42 199.128 158.846 202.08 158.764C202.08 158.764 202.08 158.764 202.162 158.764C202.9 158.682 203.802 158.764 204.704 158.764C204.868 158.764 205.032 158.764 205.196 158.764C205.524 158.764 205.77 158.764 206.18 158.764C207.328 158.764 208.64 158.764 210.198 158.764C210.198 158.764 213.068 158.682 214.134 161.716L230.534 212.064C230.78 212.884 230.616 213.868 230.042 214.688C229.468 215.508 228.648 216 227.746 216H214.626C213.724 216 212.986 215.508 212.74 214.606L211.264 209.85H183.548L182.482 211.572L180.268 214.606C179.694 215.508 178.628 216 177.644 216H163.786C162.802 216 161.982 215.508 161.654 214.688ZM202.326 181.232L192.568 196.156H207.082L202.326 181.232ZM300.483 158.518C302.287 158.518 303.517 159.912 303.189 161.716L296.055 201.076C294.579 209.358 286.543 216.082 278.097 216.082L276.457 216V216.082L248.331 216C239.885 215.918 234.309 209.276 235.785 200.994L242.919 161.716C243.247 159.912 244.969 158.518 246.773 158.518H257.023C258.827 158.518 259.975 159.912 259.729 161.716L252.923 199.026C252.759 200.092 253.497 200.912 254.563 200.912H277.195C278.261 200.912 279.245 200.092 279.491 199.026L286.215 161.716C286.543 159.912 288.265 158.518 290.069 158.518H300.483ZM362.059 158.682C363.863 158.682 365.093 160.076 364.765 161.88L363.289 170.08C362.961 171.884 361.239 173.278 359.435 173.278H343.609C343.281 173.278 342.953 173.606 342.871 173.934L335.819 212.884C335.491 214.606 333.769 216 331.965 216H321.141C319.419 216 318.189 214.606 318.517 212.884L325.569 173.934C325.651 173.524 325.405 173.278 324.995 173.278H309.169C307.365 173.278 306.217 171.884 306.545 170.08L308.021 161.88C308.349 160.076 309.989 158.682 311.793 158.682H362.059ZM418.148 158.518C426.512 158.518 432.17 165.16 430.694 173.442L425.692 201.076C424.134 209.358 416.18 216 407.734 216H374.606C366.242 216 360.584 209.358 362.06 201.076L367.062 173.442C368.62 165.16 376.574 158.518 385.02 158.518H418.148ZM408.636 199.108L412.982 175.246C413.146 174.18 412.408 173.278 411.342 173.278H386.414C385.348 173.278 384.364 174.18 384.118 175.246L379.854 199.108C379.608 200.174 380.346 200.994 381.412 200.994H406.34C407.406 200.994 408.472 200.174 408.636 199.108Z" fill="url(#paint0_linear_75_47)"/>
<rect x="270" y="207" width="162" height="40" fill="white"/>
<path d="M191.352 132.224C191.88 132.224 192.24 132.632 192.144 133.16L191.712 135.56C191.616 136.088 191.112 136.496 190.584 136.496H185.952C185.856 136.496 185.76 136.592 185.736 136.688L183.672 148.088C183.576 148.592 183.072 149 182.544 149H179.376C178.872 149 178.512 148.592 178.608 148.088L180.672 136.688C180.696 136.568 180.624 136.496 180.504 136.496H175.872C175.344 136.496 175.008 136.088 175.104 135.56L175.536 133.16C175.632 132.632 176.112 132.224 176.64 132.224H191.352ZM187.447 148.616C187.351 148.376 187.399 148.088 187.567 147.848L197.287 133.112C197.791 132.44 198.415 132.272 199.279 132.248C199.279 132.248 199.279 132.248 199.303 132.248C199.519 132.224 199.783 132.248 200.047 132.248C200.095 132.248 200.143 132.248 200.191 132.248C200.287 132.248 200.359 132.248 200.479 132.248C200.815 132.248 201.199 132.248 201.655 132.248C201.655 132.248 202.495 132.224 202.807 133.112L207.607 147.848C207.679 148.088 207.631 148.376 207.463 148.616C207.295 148.856 207.055 149 206.791 149H202.951C202.687 149 202.471 148.856 202.399 148.592L201.967 147.2H193.855L193.543 147.704L192.895 148.592C192.727 148.856 192.415 149 192.127 149H188.071C187.783 149 187.543 148.856 187.447 148.616ZM199.351 138.824L196.495 143.192H200.743L199.351 138.824ZM224.118 132.224C224.646 132.224 225.006 132.632 224.91 133.16L224.478 135.56C224.382 136.088 223.878 136.496 223.35 136.496H218.718C218.622 136.496 218.526 136.592 218.502 136.688L216.438 148.088C216.342 148.592 215.838 149 215.31 149H212.142C211.638 149 211.278 148.592 211.374 148.088L213.438 136.688C213.462 136.568 213.39 136.496 213.27 136.496H208.638C208.11 136.496 207.774 136.088 207.87 135.56L208.302 133.16C208.398 132.632 208.878 132.224 209.406 132.224H224.118ZM220.212 148.616C220.116 148.376 220.164 148.088 220.332 147.848L230.052 133.112C230.556 132.44 231.18 132.272 232.044 132.248C232.044 132.248 232.044 132.248 232.068 132.248C232.284 132.224 232.548 132.248 232.812 132.248C232.86 132.248 232.908 132.248 232.956 132.248C233.052 132.248 233.124 132.248 233.244 132.248C233.58 132.248 233.964 132.248 234.42 132.248C234.42 132.248 235.26 132.224 235.572 133.112L240.372 147.848C240.444 148.088 240.396 148.376 240.228 148.616C240.06 148.856 239.82 149 239.556 149H235.716C235.452 149 235.236 148.856 235.164 148.592L234.732 147.2H226.62L226.308 147.704L225.66 148.592C225.492 148.856 225.18 149 224.892 149H220.836C220.548 149 220.308 148.856 220.212 148.616ZM232.116 138.824L229.26 143.192H233.508L232.116 138.824ZM251.244 148.616C251.148 148.376 251.196 148.088 251.364 147.848L261.084 133.112C261.588 132.44 262.212 132.272 263.076 132.248C263.076 132.248 263.076 132.248 263.1 132.248C263.316 132.224 263.58 132.248 263.844 132.248C263.892 132.248 263.94 132.248 263.988 132.248C264.084 132.248 264.156 132.248 264.276 132.248C264.612 132.248 264.996 132.248 265.452 132.248C265.452 132.248 266.292 132.224 266.604 133.112L271.404 147.848C271.476 148.088 271.428 148.376 271.26 148.616C271.092 148.856 270.852 149 270.588 149H266.748C266.484 149 266.268 148.856 266.196 148.592L265.764 147.2H257.652L257.34 147.704L256.692 148.592C256.524 148.856 256.212 149 255.924 149H251.868C251.58 149 251.34 148.856 251.244 148.616ZM263.148 138.824L260.292 143.192H264.54L263.148 138.824ZM276.627 132.224H279.795C280.323 132.224 280.683 132.632 280.587 133.16L277.875 148.088C277.779 148.592 277.299 149 276.771 149H273.603C273.075 149 272.715 148.592 272.811 148.088L275.523 133.16C275.619 132.632 276.099 132.224 276.627 132.224ZM299.866 132.224C300.37 132.224 300.73 132.632 300.634 133.16L300.202 135.56C300.106 136.088 299.602 136.496 299.074 136.496H288.082C287.77 136.496 287.482 136.76 287.41 137.072L286.162 144.032C286.114 144.344 286.306 144.584 286.618 144.584H293.362C293.458 144.584 293.554 144.512 293.578 144.392L293.866 142.784C293.89 142.664 293.818 142.592 293.722 142.592H290.098C289.786 142.592 289.57 142.328 289.642 142.016L290.146 139.136C290.218 138.824 290.506 138.56 290.818 138.56H298.714C299.242 138.56 299.578 138.992 299.482 139.496L297.946 148.088C297.85 148.592 297.346 149.024 296.818 149H296.338L284.602 148.976C282.13 148.976 280.498 147.032 280.954 144.608L282.394 136.616C282.826 134.192 285.178 132.224 287.65 132.224H299.866Z" fill="#055CA8"/>
<path d="M309.4 218.32L308.24 224.68C307.52 228.72 303.6 231.96 299.48 231.96L286.72 232C286.52 232 286.36 232.12 286.32 232.32L285.4 237.48C285.24 238.32 284.4 239 283.56 239H278.28C277.4 239 276.8 238.32 276.96 237.48L281.48 212.56C281.64 211.72 282.44 211 283.32 211H303.28C307.4 211 310.12 214.28 309.4 218.32ZM300.72 219.4C300.88 218.64 300.36 218 299.56 218H289.24C289.08 218 288.88 218.16 288.88 218.32L287.72 224.68C287.68 224.84 287.8 224.96 288 224.96H298.32C299.08 224.96 299.84 224.36 299.96 223.6L300.72 219.4ZM341.703 210.96C342.583 210.96 343.183 211.64 343.023 212.52L339.543 231.72C338.823 235.76 334.903 239.04 330.783 239.04L329.983 239V239.04L316.263 239C312.143 238.96 309.423 235.72 310.143 231.68L313.623 212.52C313.783 211.64 314.623 210.96 315.503 210.96H320.503C321.383 210.96 321.943 211.64 321.823 212.52L318.503 230.72C318.423 231.24 318.783 231.64 319.303 231.64H330.343C330.863 231.64 331.343 231.24 331.463 230.72L334.743 212.52C334.903 211.64 335.743 210.96 336.623 210.96H341.703Z" fill="#055CA8"/>
<path d="M365.962 231.389C366.994 231.389 367.682 232.206 367.467 233.195L366.736 237.323C366.564 238.269 365.661 239.043 364.672 239.043H344.677C344.204 239.043 343.774 238.828 343.473 238.484C343.215 238.14 343.086 237.667 343.172 237.194L347.515 213.157C347.687 212.168 348.59 211.437 349.579 211.437H354.696C355.685 211.437 356.373 212.254 356.201 213.243L353.019 230.787C353.019 230.959 353.019 231.131 353.105 231.217C353.234 231.346 353.363 231.389 353.535 231.389H365.962ZM398.996 211.437C399.985 211.437 400.673 212.254 400.501 213.243L399.77 217.113C399.598 218.102 398.695 218.833 397.749 218.833H381.194C380.807 218.833 380.42 219.177 380.377 219.521L380.076 221.241C380.033 221.413 380.076 221.542 380.162 221.671C380.248 221.757 380.377 221.843 380.549 221.843H392.761C394.782 221.843 396.545 222.617 397.706 223.993C398.867 225.412 399.297 227.261 398.953 229.196L398.48 231.733C397.792 235.775 393.836 239.043 389.794 239.043L371.261 239C370.229 239 369.541 238.183 369.713 237.194L370.444 233.109C370.659 232.163 371.562 231.389 372.508 231.389H389.536C389.88 231.389 390.267 231.088 390.353 230.701L390.568 229.454C390.611 229.282 390.568 229.11 390.482 229.024C390.396 228.895 390.224 228.852 390.095 228.852H377.84C375.862 228.852 374.099 228.078 372.938 226.659C371.777 225.283 371.347 223.434 371.691 221.456L372.164 218.704C372.895 214.705 376.808 211.437 380.893 211.437H398.996ZM430.486 211.351C431.174 211.351 431.647 211.91 431.518 212.598L430.572 217.672C430.486 218.317 429.884 218.833 429.239 218.833H413.372C413.329 218.833 413.286 218.876 413.286 218.876L412.77 221.671H425.541C425.842 221.671 426.143 221.8 426.315 222.058C426.53 222.273 426.616 222.574 426.53 222.875L425.713 227.605C425.584 228.207 424.982 228.723 424.337 228.723H411.609C411.566 228.723 411.523 228.766 411.48 228.809L411.05 231.389H426.874C427.218 231.389 427.476 231.518 427.691 231.733C427.863 231.991 427.949 232.292 427.906 232.593L426.96 237.925C426.831 238.527 426.229 239.043 425.584 239.043H402.794C402.278 239.043 401.848 238.828 401.59 238.484C401.289 238.14 401.16 237.71 401.246 237.194L405.632 213.071C405.804 212.125 406.707 211.351 407.696 211.351H430.486Z" fill="#055CA8"/>
<defs>
<linearGradient id="paint0_linear_75_47" x1="166" y1="193" x2="441" y2="193" gradientUnits="userSpaceOnUse">
<stop stop-color="#00AEEF"/>
<stop offset="0.33" stop-color="#744199"/>
<stop offset="0.62" stop-color="#B181D3"/>
<stop offset="1" stop-color="#F96D30"/>
</linearGradient>
</defs>
</svg>
